<svg width="44" height="42" viewBox="0 0 44 42" fill="none" xmlns="http://www.w3.org/2000/svg">
<g clip-path="url(#clip0_244_270)">
<path fill-rule="evenodd" clip-rule="evenodd" d="M22.5151 4.69348C13.6101 4.69348 6.37912 12.0201 6.37912 21.0653C6.37912 28.3015 11.005 34.4322 17.4138 36.603C18.2161 36.7538 18.5133 36.2513 18.5133 35.8091C18.5133 35.4171 18.5034 34.392 18.4935 33.0251C14.0063 34.0101 13.0554 30.8342 13.0554 30.8342C12.3224 28.9447 11.2625 28.4422 11.2625 28.4422C9.7965 27.4272 11.3715 27.4473 11.3715 27.4473C12.9861 27.5679 13.8478 29.1357 13.8478 29.1357C15.2841 31.6382 17.6218 30.9146 18.543 30.4925C18.6916 29.4372 19.1076 28.7136 19.5633 28.3015C15.9775 27.8895 12.2134 26.4824 12.2134 20.2111C12.2134 18.4221 12.8375 16.9648 13.8775 15.8191C13.7092 15.4071 13.1544 13.7387 14.036 11.4875C14.036 11.4875 15.3931 11.0452 18.4737 13.1658C19.7614 12.804 21.1382 12.6231 22.5151 12.6131C23.882 12.6231 25.2688 12.804 26.5565 13.1658C29.6371 11.0452 30.9942 11.4875 30.9942 11.4875C31.8757 13.7387 31.321 15.4071 31.1526 15.8191C32.1828 16.9648 32.8069 18.4221 32.8069 20.2111C32.8069 26.5025 29.0329 27.8794 25.4372 28.2915C26.0117 28.794 26.5367 29.799 26.5367 31.3267C26.5367 33.5176 26.5169 35.2764 26.5169 35.8191C26.5169 36.2613 26.8042 36.7638 27.6263 36.603C34.0351 34.4322 38.6511 28.3015 38.6511 21.0754C38.6511 12.0201 31.43 4.69348 22.5151 4.69348Z" fill="black"/>
</g>
<defs>
<clipPath id="clip0_244_270">
<rect width="44" height="42" fill="white"/>
</clipPath>
</defs>
</svg>
