<svg width="30" height="30" viewBox="0 0 30 30" fill="none" xmlns="http://www.w3.org/2000/svg">
<path d="M15 2.89865C18.9416 2.89865 19.408 2.91388 20.9649 2.98478C22.4039 3.0504 23.1856 3.29064 23.7059 3.49279C24.3949 3.76056 24.8865 4.08048 25.4033 4.59669C25.9201 5.11349 26.2401 5.60509 26.5072 6.29415C26.7094 6.81447 26.9496 7.59611 27.0153 9.03517C27.0862 10.5914 27.1014 11.0584 27.1014 15C27.1014 18.9416 27.0862 19.408 27.0153 20.9649C26.9496 22.4039 26.7094 23.1856 26.5072 23.7059C26.2395 24.3949 25.9195 24.8865 25.4033 25.4033C24.8865 25.9201 24.3949 26.2401 23.7059 26.5072C23.1856 26.7094 22.4039 26.9496 20.9649 27.0153C19.4086 27.0862 18.9416 27.1014 15 27.1014C11.0584 27.1014 10.5914 27.0862 9.03517 27.0153C7.59611 26.9496 6.81447 26.7094 6.29415 26.5072C5.60509 26.2395 5.11349 25.9196 4.59669 25.4033C4.0799 24.8865 3.75997 24.3949 3.49279 23.7059C3.29064 23.1856 3.0504 22.4039 2.98478 20.9649C2.91388 19.4086 2.89865 18.9416 2.89865 15C2.89865 11.0584 2.91388 10.592 2.98478 9.03517C3.0504 7.59611 3.29064 6.81447 3.49279 6.29415C3.76056 5.60509 4.08048 5.11349 4.59669 4.59669C5.11349 4.0799 5.60509 3.75997 6.29415 3.49279C6.81447 3.29064 7.59611 3.0504 9.03517 2.98478C10.592 2.91388 11.0584 2.89865 15 2.89865ZM15 0.239075C10.991 0.239075 10.4883 0.256067 8.91388 0.328137C7.34298 0.399622 6.26955 0.649231 5.33087 1.01427C4.35997 1.39161 3.53673 1.89611 2.71642 2.71701C1.89611 3.53732 1.39103 4.36056 1.01368 5.33087C0.648645 6.26955 0.399036 7.34298 0.327551 8.91388C0.256067 10.4883 0.239075 10.991 0.239075 15C0.239075 19.009 0.256067 19.5117 0.328137 21.0862C0.399622 22.6571 0.649231 23.7305 1.01427 24.6692C1.39161 25.6401 1.89611 26.4633 2.71701 27.2836C3.5379 28.1045 4.36056 28.609 5.33146 28.9864C6.27013 29.3514 7.34357 29.601 8.91447 29.6725C10.4889 29.7446 10.9916 29.7615 15.0006 29.7615C19.0096 29.7615 19.5123 29.7446 21.0867 29.6725C22.6576 29.601 23.7311 29.3514 24.6697 28.9864C25.6406 28.609 26.4639 28.1045 27.2842 27.2836C28.1051 26.4627 28.6096 25.6401 28.9869 24.6692C29.352 23.7305 29.6016 22.6571 29.6731 21.0862C29.7451 19.5117 29.7621 19.009 29.7621 15C29.7621 10.991 29.7451 10.4883 29.6731 8.91388C29.6016 7.34298 29.352 6.26955 28.9869 5.33087C28.6096 4.35997 28.1051 3.53673 27.2842 2.71642C26.4633 1.89552 25.6406 1.39103 24.6697 1.01368C23.7311 0.648645 22.6576 0.399036 21.0867 0.327551C19.5117 0.256067 19.009 0.239075 15 0.239075Z" fill="black"/>
<path d="M15 7.42032C10.8135 7.42032 7.42032 10.8141 7.42032 15C7.42032 19.186 10.8135 22.5797 15 22.5797C19.1865 22.5797 22.5797 19.1865 22.5797 15C22.5797 10.8135 19.1865 7.42032 15 7.42032ZM15 19.9201C12.2824 19.9201 10.0799 17.717 10.0799 15C10.0799 12.283 12.283 10.0799 15 10.0799C17.7176 10.0799 19.9201 12.283 19.9201 15C19.9201 17.717 17.7176 19.9201 15 19.9201Z" fill="black"/>
<path d="M22.8797 8.89161C23.858 8.89161 24.651 8.09857 24.651 7.12032C24.651 6.14206 23.858 5.34903 22.8797 5.34903C21.9015 5.34903 21.1084 6.14206 21.1084 7.12032C21.1084 8.09857 21.9015 8.89161 22.8797 8.89161Z" fill="black"/>
</svg>
