<?xml version="1.0" encoding="iso-8859-1"?>
<!DOCTYPE svg PUBLIC "-//W3C//DTD SVG 1.1//EN" "http://www.w3.org/Graphics/SVG/1.1/DTD/svg11.dtd">
<svg fill="#000000" version="1.1" id="Capa_1" xmlns="http://www.w3.org/2000/svg" xmlns:xlink="http://www.w3.org/1999/xlink" 
	 width="32" height="32" viewBox="0 0 97.75 97.75" xml:space="preserve"
	>
<g>
	<path d="M48.875,0C21.882,0,0,21.882,0,48.875S21.882,97.75,48.875,97.75S97.75,75.868,97.75,48.875S75.868,0,48.875,0z
		 M30.562,81.966h-13.74V37.758h13.74V81.966z M23.695,31.715c-4.404,0-7.969-3.57-7.969-7.968c0.001-4.394,3.565-7.964,7.969-7.964
		c4.392,0,7.962,3.57,7.962,7.964C31.657,28.146,28.086,31.715,23.695,31.715z M82.023,81.966H68.294V60.467
		c0-5.127-0.095-11.721-7.142-11.721c-7.146,0-8.245,5.584-8.245,11.35v21.869H39.179V37.758h13.178v6.041h0.185
		c1.835-3.476,6.315-7.14,13-7.14c13.913,0,16.481,9.156,16.481,21.059V81.966z"/>
</g>
</svg>