<svg width="40" height="35" viewBox="0 0 40 35" fill="none" xmlns="http://www.w3.org/2000/svg">
<path d="M36.5875 29.0175C37.7409 29.0199 38.6527 29.9197 38.6455 31.0611C38.6383 32.3605 37.5447 33.1622 36.5444 33.1311C35.4053 33.0952 34.5031 32.2098 34.5031 31.0611C34.5031 29.8527 35.5321 28.9505 36.5875 29.0175ZM36.6593 32.942C37.6596 32.9396 38.557 32.004 38.4517 30.9104C38.3392 29.7426 37.3604 29.1324 36.487 29.1826C35.3814 29.2472 34.6156 30.159 34.6946 31.2574C34.7616 32.217 35.6925 33.0162 36.6593 32.942Z" fill="black"/>
<path d="M33.431 4.4773C33.431 4.36483 33.4215 4.24996 33.4047 4.13749C33.2492 3.11807 32.3135 2.2901 31.1529 2.29488C26.8047 2.31642 22.4565 2.30445 18.1083 2.30445C14.7819 2.30445 11.4556 2.30445 8.13162 2.30445C7.08106 2.30445 6.02812 2.29488 4.97756 2.30685C3.73078 2.3212 2.79749 3.2784 2.79749 4.52037C2.79749 13.2429 2.79749 21.9653 2.79988 30.6902C2.79988 30.9056 2.83099 31.1305 2.89321 31.3363C3.18038 32.3222 4.00359 32.9085 5.09243 32.9085C13.7697 32.9085 22.4469 32.9085 31.1265 32.9085C31.2031 32.9085 31.2797 32.9085 31.3563 32.9061C32.5121 32.8559 33.4358 31.8963 33.4358 30.7357C33.4334 21.9821 33.4334 13.2309 33.431 4.4773ZM11.9127 28.1249C11.9127 28.357 11.8456 28.448 11.6039 28.448C10.2662 28.4408 8.92851 28.4384 7.59078 28.448C7.32755 28.4504 7.27729 28.3427 7.27969 28.1058C7.28687 25.7654 7.28447 23.4275 7.28447 21.0871C7.28447 18.7563 7.28926 16.4279 7.27969 14.0972C7.27969 13.8291 7.34191 13.7358 7.62668 13.7382C8.94526 13.7526 10.2638 13.7502 11.5824 13.7406C11.8265 13.7382 11.915 13.8004 11.915 14.0589C11.9079 18.7468 11.9079 23.437 11.9127 28.1249ZM9.59138 11.7807C8.11487 11.7807 6.93987 10.6082 6.93748 9.13407C6.93748 7.64084 8.11247 6.46109 9.59856 6.46349C11.0751 6.46349 12.2573 7.65759 12.2573 9.14365C12.2549 10.6082 11.0703 11.7807 9.59138 11.7807ZM28.9512 28.0818C28.9536 28.381 28.8531 28.4528 28.5755 28.448C27.2857 28.436 25.9958 28.436 24.7059 28.448C24.4164 28.4504 24.3278 28.3594 24.3278 28.0699C24.3374 25.6625 24.3446 23.2552 24.3255 20.8478C24.3207 20.2424 24.268 19.625 24.134 19.0363C23.8947 17.9762 23.2103 17.4641 22.1191 17.4521C21.7888 17.4474 21.4466 17.4641 21.1283 17.5431C20.0682 17.8063 19.6135 18.6056 19.4364 19.5963C19.3503 20.0725 19.3192 20.563 19.3168 21.0464C19.3048 23.3868 19.312 25.7271 19.312 28.0675C19.312 28.4408 19.312 28.4432 18.9291 28.4432C17.6392 28.4432 16.3494 28.436 15.0595 28.448C14.7748 28.4504 14.6838 28.369 14.6838 28.0747C14.6934 23.4227 14.6886 18.7707 14.691 14.1187C14.691 13.7454 14.6934 13.7454 15.0739 13.743C16.3159 13.743 17.5579 13.7502 18.7999 13.7382C19.0607 13.7358 19.1517 13.81 19.1445 14.0756C19.1277 14.5997 19.1397 15.1261 19.1397 15.6502C19.6398 14.9443 20.2381 14.3652 20.9919 13.9584C21.8797 13.4798 22.8298 13.2764 23.8325 13.396C24.426 13.4654 25.0338 13.5061 25.6057 13.6664C27.2689 14.133 28.2142 15.32 28.5851 16.9448C28.7909 17.8494 28.9177 18.7874 28.9321 19.7135C28.9728 22.5014 28.9393 25.2916 28.9512 28.0818Z" fill="black"/>
<path d="M36.8364 31.2143C37.0326 31.5206 37.2193 31.8149 37.4083 32.1069C37.3892 32.1308 37.3724 32.1523 37.3533 32.1763C37.2624 32.1236 37.1427 32.0901 37.0853 32.0111C36.9321 31.8053 36.7933 31.5876 36.6665 31.3626C36.5612 31.176 36.3985 31.1305 36.2333 31.1975C36.1663 31.2262 36.1376 31.3937 36.1256 31.5038C36.1089 31.6546 36.1328 31.8101 36.1161 31.9609C36.1089 32.0255 36.0395 32.0829 35.9988 32.1452C35.9533 32.0853 35.8744 32.0279 35.8696 31.9657C35.8552 31.6713 35.8624 31.3746 35.8624 31.0779C35.8624 30.8003 35.8696 30.5251 35.86 30.2475C35.8552 30.0704 35.9127 29.9795 36.1041 29.9891C36.3434 29.9986 36.5803 29.9867 36.8196 29.9986C37.1977 30.0154 37.3916 30.1829 37.437 30.5083C37.4777 30.7955 37.3174 31.0204 36.9871 31.1473C36.9441 31.164 36.9034 31.1832 36.8364 31.2143ZM36.1232 30.1996C36.1232 30.4389 36.1137 30.628 36.128 30.817C36.1328 30.8721 36.2022 30.9702 36.2405 30.9702C36.4655 30.9702 36.6952 30.9654 36.9154 30.9247C37.1236 30.884 37.1882 30.6926 37.1259 30.5227C37.0805 30.3959 36.9489 30.2427 36.8268 30.214C36.6162 30.1637 36.3841 30.1996 36.1232 30.1996Z" fill="black"/>
</svg>
