<svg id="Capa_1" enable-background="new 0 0 512 512" height="512" viewBox="0 0 512 512" width="512" xmlns="http://www.w3.org/2000/svg"><g><path d="m0 256c0-141.207 114.327-255.711 255.466-255.999 141.085-.289 256.475 114.804 256.534 255.889.03 70.372-28.336 134.119-74.267 180.412-3.735 3.764-9.755 3.991-13.756.51-44.956-39.123-103.7-62.812-167.977-62.812-64.406 0-123.256 23.784-168.248 63.048-3.855 3.364-9.653 3.108-13.261-.519-46.039-46.288-74.491-110.086-74.491-180.529z" fill="#40c1fa"/><path d="m464 256c0 114.875-93.125 208-208 208s-208-93.125-208-208 93.125-208 208-208 208 93.125 208 208z" fill="#72d1fb"/><path d="m485.88 300c0 8.284-6.716 15-15 15h-58.427c-8.284 0-15-6.716-15-15 0-8.284 6.716-15 15-15 6.996 0 12.667-5.671 12.667-12.667v-2.333c0-8.284 6.716-15 15-15h3.094c8.284 0 15 6.716 15 15v2.333c0 6.996 5.671 12.667 12.667 12.667 8.283 0 14.999 6.716 14.999 15zm-388.047 45c0-8.284-6.716-15-15-15h-25.333c-8.284 0-15 6.716-15 15 0 8.284 6.716 15 15 15h25.333c8.285 0 15-6.716 15-15zm73.988-257.952c0-8.284-6.716-15-15-15h-51.487c-8.284 0-15 6.716-15 15 0 8.284 6.716 15 15 15h51.487c8.284 0 15-6.715 15-15zm251.423 27.952c0-8.284-6.716-15-15-15h-51.487c-8.284 0-15 6.716-15 15 0 8.284 6.716 15 15 15h51.487c8.284 0 15-6.716 15-15zm29.543 260c0-8.284-6.716-15-15-15h-25.333c-8.284 0-15 6.716-15 15 0 8.284 6.716 15 15 15h25.333c8.284 0 15-6.716 15-15z" fill="#93dcfc"/><path d="m438.033 436c-46.405 46.925-110.824 76-182.033 76s-135.628-29.075-182.033-76c46.405-46.925 110.823-76 182.033-76s135.628 29.075 182.033 76z" fill="#6dc54a"/><path d="m294.76 508.562c.549.091 1.098.18 1.648.267-13.162 2.087-26.658 3.171-40.408 3.171-71.209 0-135.628-29.075-182.033-76 46.405-46.925 110.823-76 182.033-76 13.75 0 27.246 1.084 40.408 3.171-.55.087-1.1.176-1.648.267-81.949 13.545-81.949 131.579 0 145.124z" fill="#5db33a"/><path d="m154.311 318.7-57.282 153.916c-1.124 3.02-3.986 4.886-7.03 4.886-.869 0-1.752-.152-2.615-.473-3.882-1.445-5.858-5.764-4.413-9.646l57.282-153.916c1.445-3.882 5.763-5.855 9.645-4.413 3.882 1.446 5.857 5.764 4.413 9.646z" fill="#2476ed"/><path d="m260.67 318.7-57.282 153.916c-1.124 3.02-3.986 4.886-7.03 4.886-.869 0-1.752-.152-2.615-.473-3.882-1.445-5.858-5.764-4.413-9.646l57.282-153.916c1.445-3.882 5.763-5.855 9.645-4.413 3.882 1.446 5.858 5.764 4.413 9.646zm101.946-9.645c-3.882-1.442-8.2.531-9.645 4.413l-57.282 153.916c-1.445 3.882.531 8.2 4.413 9.646.862.32 1.746.473 2.615.473 3.043 0 5.906-1.866 7.03-4.886l57.282-153.917c1.445-3.882-.531-8.2-4.413-9.645z" fill="#d5f1fe"/><path d="m207.49 318.7-57.282 153.916c-1.124 3.02-3.986 4.886-7.03 4.886-.869 0-1.752-.152-2.615-.473-3.882-1.445-5.858-5.764-4.413-9.646l57.282-153.916c1.444-3.882 5.764-5.855 9.645-4.413 3.882 1.446 5.858 5.764 4.413 9.646zm101.946-9.645c-3.88-1.442-8.2.531-9.645 4.413l-57.281 153.916c-1.445 3.882.531 8.2 4.413 9.646.862.32 1.746.473 2.615.473 3.043 0 5.906-1.866 7.03-4.886l57.281-153.917c1.445-3.882-.531-8.2-4.413-9.645z" fill="#5596fb"/><path d="m459.91 195c0 24.853-20.147 45-45 45h-317.82c-24.853 0-45-20.147-45-45 0-24.853 20.147-45 45-45h3.91c8.284 0 15-6.716 15-15 0-24.853 20.147-45 45-45h7.857c8.284 0 15-6.716 15-15 0-24.853 20.147-45 45-45h44.286c24.853 0 45 20.147 45 45 0 8.284 6.716 15 15 15h7.857c24.853 0 45 20.147 45 45 0 8.284 6.716 15 15 15h13.911c24.852 0 44.999 20.147 44.999 45z" fill="#0a4499"/><path d="m111.543 240h-14.453c-24.853 0-45-20.147-45-45s20.147-45 45-45h3.91c8.284 0 15-6.716 15-15 0-24.853 20.147-45 45-45h7.857c8.284 0 15-6.716 15-15 0-24.853 20.147-45 45-45h44.286c3.519 0 6.943.404 10.229 1.168l-26.346 3.832c-24.594 3.577-41.631 26.415-38.054 51.009 1.192 8.198-4.487 15.811-12.685 17.003l-7.775 1.131c-24.594 3.577-41.631 26.415-38.054 51.009 1.192 8.198-4.487 15.811-12.685 17.003l-3.87.563c-24.594 3.578-41.631 26.415-38.054 51.009.862 5.923 2.841 11.408 5.694 16.273z" fill="#0a3575"/><path d="m382.5 260c0 16.568-13.431 30-30 30h-280c-16.569 0-30-13.432-30-30 0-16.568 13.431-30 30-30 16.569 0 30-13.431 30-30 0-16.569 13.431-30 30-30h100c16.569 0 30 13.431 30 30 0 16.569 13.431 30 30 30h60c16.569 0 30 13.432 30 30z" fill="#2476ed"/><path d="m93.825 290h-21.325c-16.569 0-30-13.432-30-30s13.431-30 30-30c16.568 0 30-13.432 30-30 0-16.568 13.431-30 30-30h77.087l-30.564 2.529c-17.838 1.476-31.103 17.134-29.626 34.972 1.476 17.838-11.788 33.496-29.626 34.972-17.838 1.477-31.102 17.134-29.626 34.972.375 4.537 1.668 8.777 3.68 12.555z" fill="#0a66ea"/><path d="m308.599 228.453-22 51.333c-1.219 2.844-3.987 4.548-6.897 4.548-.986 0-1.988-.195-2.951-.608-3.807-1.632-5.571-6.041-3.939-9.848l17.52-40.879h-25.292c-2.46 0-4.763-1.206-6.165-3.228-1.401-2.022-1.722-4.603-.858-6.906l22-58.667c1.454-3.879 5.776-5.843 9.656-4.389 3.878 1.454 5.844 5.777 4.389 9.656l-18.2 48.533h25.844c2.521 0 4.874 1.267 6.261 3.371s1.626 4.766.632 7.084z" fill="#fff5f5"/><path d="m369.394 173.123-16 37.333c-1.219 2.844-3.987 4.548-6.897 4.548-.986 0-1.988-.195-2.951-.608-3.807-1.632-5.571-6.041-3.939-9.848l11.52-26.879h-15.292c-2.46 0-4.763-1.206-6.165-3.228-1.401-2.022-1.722-4.603-.858-6.906l16-42.667c1.454-3.879 5.777-5.842 9.656-4.389 3.878 1.454 5.844 5.777 4.389 9.656l-12.2 32.533h15.843c2.521 0 4.874 1.267 6.261 3.371s1.626 4.766.633 7.084z" fill="#ffc14f"/></g></svg>