<svg width="32" height="32" viewBox="0 0 32 32" fill="none" xmlns="http://www.w3.org/2000/svg">
<path d="M32 16C32 24.84 24.84 32 16 32C7.16 32 0 24.84 0 16C0 7.16 7.16 0 16 0C24.84 0 32 7.16 32 16ZM13.072 24.44C20.168 24.44 24.048 18.56 24.048 13.464C24.048 13.296 24.048 13.128 24.04 12.968C24.792 12.424 25.448 11.744 25.968 10.968C25.28 11.272 24.536 11.48 23.752 11.576C24.552 11.096 25.16 10.344 25.448 9.44C24.704 9.88 23.88 10.2 23 10.376C22.296 9.624 21.296 9.16 20.184 9.16C18.056 9.16 16.328 10.888 16.328 13.016C16.328 13.32 16.36 13.616 16.432 13.896C13.224 13.736 10.384 12.2 8.48 9.864C8.152 10.432 7.96 11.096 7.96 11.8C7.96 13.136 8.64 14.32 9.68 15.008C9.048 14.992 8.456 14.816 7.936 14.528C7.936 14.544 7.936 14.56 7.936 14.576C7.936 16.448 9.264 18 11.032 18.36C10.712 18.448 10.368 18.496 10.016 18.496C9.768 18.496 9.528 18.472 9.288 18.424C9.776 19.96 11.2 21.072 12.888 21.104C11.568 22.136 9.904 22.752 8.096 22.752C7.784 22.752 7.48 22.736 7.176 22.696C8.864 23.8 10.896 24.44 13.072 24.44Z" fill="black"/>
</svg>
