<svg width="26" height="24" viewBox="0 0 47 42" fill="none" xmlns="http://www.w3.org/2000/svg">
<path d="M46.678 9.54242C46.6689 9.51149 45.2912 5.97139 45.0864 5.45556C44.3743 3.66286 42.2819 3.02552 41.7668 2.79467C41.123 2.49975 40.5229 2.32193 39.3949 2.07451C37.3782 1.63453 35.3253 1.32693 33.2541 1.1544C33.2541 1.1544 27.6038 0.618691 20.1843 1.23393C19.2146 1.30236 18.2758 1.55922 17.439 1.98503C15.2075 3.13709 14.4452 5.25342 14.1593 6.04649C13.4627 7.97947 13.6855 10.1146 14.3641 12.6308C14.4501 12.972 14.3914 13.3284 14.1985 13.6358C14.0057 13.9433 13.6914 14.1816 13.312 14.3081C12.9326 14.4345 12.5131 14.4408 12.1288 14.3256C11.7446 14.2105 11.4208 13.9816 11.2157 13.6801C10.8375 13.1045 10.2479 12.6524 9.53887 12.3943C8.8298 12.1362 8.04108 12.0865 7.2957 12.2532C6.55033 12.4198 5.89018 12.7933 5.41815 13.3154C4.94612 13.8376 4.68876 14.479 4.68617 15.1397C4.68358 15.8005 4.93596 16.4434 5.40388 16.9682C5.87181 17.493 6.52902 17.8703 7.27307 18.0413C8.01712 18.2122 8.80616 18.1671 9.51724 17.9131C10.2283 17.6591 10.8215 17.2104 11.2042 16.637C11.3537 16.41 11.5705 16.221 11.8325 16.0889C12.0946 15.9568 12.3926 15.8864 12.6965 15.8848H13.0584C13.7308 15.8845 14.3855 16.0703 14.925 16.4145C15.4646 16.7588 15.8603 17.2431 16.0534 17.7957C16.3445 18.6274 16.6484 19.4956 16.9548 20.4046C17.0256 20.6167 17.1506 20.9867 17.3231 21.4882C17.4153 21.7518 17.3887 22.0354 17.2485 22.2829C17.1083 22.5304 16.8647 22.7237 16.5662 22.8243C16.2676 22.925 15.9359 22.9257 15.6367 22.8263C15.3376 22.727 15.0929 22.5348 14.9512 22.2879C14.6577 21.7842 14.2047 21.3618 13.6439 21.0691C13.0832 20.7763 12.4376 20.6252 11.7812 20.6331C11.1249 20.6409 10.4844 20.8074 9.9334 21.1134C9.38239 21.4194 8.94316 21.8525 8.66617 22.363C8.57487 22.5248 8.43184 22.6609 8.25378 22.7555C8.07572 22.8502 7.86997 22.8995 7.6605 22.8976C7.44667 22.8966 7.23752 22.8436 7.05728 22.7449C6.87705 22.6462 6.73306 22.5058 6.64194 22.3398C6.30056 21.7255 5.72545 21.2293 5.01136 20.9329C4.29726 20.6365 3.48681 20.5576 2.71343 20.7092C1.94005 20.8607 1.24988 21.2337 0.756661 21.7667C0.263445 22.2997 -0.00339853 22.9609 3.26813e-05 23.6414C0.00346389 24.3218 0.276951 24.981 0.775523 25.5103C1.2741 26.0397 1.96798 26.4075 2.74286 26.5533C3.51774 26.6991 4.32744 26.6142 5.03852 26.3125C5.7496 26.0108 6.31966 25.5103 6.65483 24.8936C6.74802 24.733 6.89152 24.5979 7.06929 24.5035C7.24706 24.4091 7.45204 24.3591 7.66113 24.3591C7.87022 24.3591 8.07519 24.4091 8.25296 24.5035C8.43073 24.5979 8.57424 24.733 8.66743 24.8936C8.94442 25.404 9.38364 25.8372 9.93466 26.1432C10.4857 26.4492 11.1261 26.6157 11.7825 26.6235C12.4388 26.6313 13.0844 26.4802 13.6452 26.1875C14.2059 25.8948 14.6591 25.4723 14.9525 24.9687C15.0591 24.7863 15.2225 24.6327 15.4245 24.5251C15.6266 24.4175 15.8594 24.36 16.0973 24.3589H16.8699C17.2964 24.3588 17.712 24.475 18.0564 24.6909C18.4009 24.9067 18.6564 25.211 18.7859 25.5596C19.3164 26.9823 19.9448 28.6082 20.6453 30.3324C20.6876 30.4367 20.7002 30.5481 20.6821 30.6574C20.664 30.7667 20.6157 30.8706 20.5412 30.9607C20.4668 31.0507 20.3683 31.1242 20.254 31.1749C20.1397 31.2257 20.0129 31.2523 19.8843 31.2525C19.7247 31.252 19.569 31.211 19.4366 31.1348C19.3042 31.0585 19.201 30.9504 19.14 30.8239C18.8298 30.1845 18.2708 29.657 17.5583 29.3313C16.8457 29.0055 16.0235 28.9017 15.2317 29.0374C14.44 29.173 13.7275 29.5399 13.2155 30.0755C12.7035 30.6111 12.4238 31.2823 12.4238 31.9749C12.4238 32.6675 12.7035 33.3387 13.2155 33.8743C13.7275 34.4098 14.44 34.7767 15.2317 34.9124C16.0235 35.0481 16.8457 34.9442 17.5583 34.6185C18.2708 34.2928 18.8298 33.7653 19.14 33.1258C19.2019 33.0026 19.3047 32.8977 19.4358 32.8245C19.5668 32.7512 19.7201 32.7127 19.8765 32.7138H20.2435C20.6518 32.7139 21.0503 32.8207 21.3859 33.02C21.7216 33.2193 21.9785 33.5017 22.1223 33.8294C22.6373 35.0025 23.1807 36.1888 23.746 37.364C24.2701 38.4498 25.2989 40.491 27.6296 41.368C29.7311 42.16 31.9265 41.6641 33.07 41.3161C36.0998 40.1077 37.815 38.8044 41.0019 37.0083C42.0547 36.4498 43.015 35.7722 43.8567 34.9936C44.3718 34.5154 45.4998 33.4196 45.7998 31.6866C45.9378 30.8785 45.8777 30.0546 45.6234 29.2676L45.6697 29.2411C45.9695 29.0683 46.1774 28.8008 46.2478 28.4969C46.3183 28.1931 46.2457 27.8776 46.0458 27.6196L36.3071 15.1127C36.1057 14.8556 35.7939 14.6773 35.4398 14.6166C35.0856 14.556 34.7179 14.618 34.4169 14.7891L29.6988 17.493C29.3993 17.666 29.1917 17.9335 29.1212 18.2373C29.0508 18.5411 29.1233 18.8564 29.3229 19.1145L39.0614 31.6214C39.1969 31.7942 39.3835 31.9329 39.6021 32.0234C39.8207 32.1138 40.0634 32.1528 40.3053 32.1362C40.2674 32.2448 40.2209 32.351 40.1663 32.4543C40.0149 32.7369 39.8055 32.9939 39.5482 33.2131C36.4372 35.5205 34.0949 36.7477 32.7841 37.3695C32.1647 37.6622 31.2144 38.1747 30.3878 37.8036C29.1593 37.2513 27.8047 34.1586 27.6219 33.6196C26.1591 29.3184 26.132 29.1837 20.2332 10.4592C20.0735 9.95553 19.4374 8.20922 20.1869 7.05164C20.349 6.81353 20.5459 6.59415 20.7728 6.39884C22.2652 5.14517 34.7078 5.52514 37.0668 6.02992C38.3545 6.30385 39.6808 6.69266 40.4418 7.70112C40.8539 8.24346 41.0509 8.89846 41.208 9.42312C41.4194 10.1275 41.5327 10.8509 41.5454 11.5781C41.6175 12.2663 41.6213 12.5789 41.9059 12.7512C42.099 12.8682 42.3257 12.8616 42.936 12.7633C43.7086 12.633 44.6563 12.411 46.2273 11.7549C46.6265 11.587 46.7424 11.5262 46.8492 11.3981C47.1287 11.038 46.9896 10.5774 46.678 9.54242ZM8.16909 16.6834C7.8156 16.6834 7.4701 16.5935 7.17618 16.425C6.88226 16.2565 6.65316 16.0171 6.51789 15.737C6.38261 15.4568 6.34719 15.1485 6.41616 14.8511C6.48512 14.5538 6.65536 14.2806 6.90532 14.0662C7.15527 13.8518 7.47375 13.7058 7.82045 13.6466C8.16715 13.5874 8.52652 13.6178 8.8531 13.7338C9.17968 13.8499 9.45879 14.0464 9.65518 14.2985C9.85157 14.5506 9.95641 14.847 9.95641 15.1503C9.95573 15.5567 9.7672 15.9463 9.43217 16.2337C9.09714 16.5211 8.64289 16.6828 8.16909 16.6834ZM3.48974 25.1675C3.13599 25.1675 2.7902 25.0775 2.49608 24.9089C2.20195 24.7403 1.97271 24.5007 1.83734 24.2204C1.70197 23.94 1.66654 23.6316 1.73555 23.3339C1.80456 23.0363 1.97489 22.763 2.22502 22.5484C2.47516 22.3338 2.79384 22.1877 3.14079 22.1285C3.48774 22.0693 3.84737 22.0997 4.17419 22.2158C4.50101 22.3319 4.78037 22.5286 4.9769 22.7809C5.17343 23.0332 5.27832 23.3298 5.27832 23.6333C5.27798 24.0401 5.08942 24.4301 4.75408 24.7178C4.41873 25.0055 3.96399 25.1672 3.48974 25.1675ZM11.8299 25.1675C11.4761 25.1677 11.1302 25.0779 10.8359 24.9095C10.5416 24.741 10.3122 24.5015 10.1766 24.2211C10.041 23.9408 10.0054 23.6323 10.0743 23.3346C10.1432 23.0369 10.3134 22.7635 10.5635 22.5488C10.8135 22.3341 11.1322 22.1879 11.4792 22.1286C11.8262 22.0693 12.1859 22.0996 12.5128 22.2157C12.8397 22.3318 13.1191 22.5284 13.3157 22.7808C13.5123 23.0331 13.6172 23.3298 13.6172 23.6333C13.617 23.835 13.5705 24.0347 13.4803 24.221C13.3901 24.4073 13.2581 24.5765 13.0916 24.719C12.9252 24.8615 12.7276 24.9744 12.5102 25.0514C12.2929 25.1283 12.0599 25.1678 11.8248 25.1675H11.8299ZM15.9144 33.5168C15.5606 33.5171 15.2147 33.4273 14.9204 33.2588C14.6261 33.0904 14.3967 32.8508 14.2611 32.5705C14.1255 32.2902 14.0899 31.9817 14.1587 31.684C14.2276 31.3863 14.3979 31.1128 14.648 30.8981C14.898 30.6835 15.2167 30.5372 15.5637 30.4779C15.9107 30.4187 16.2704 30.449 16.5972 30.5651C16.9241 30.6812 17.2036 30.8778 17.4002 31.1301C17.5967 31.3825 17.7017 31.6791 17.7017 31.9826C17.7 32.3892 17.5103 32.7787 17.1742 33.0655C16.8382 33.3523 16.3833 33.513 15.9093 33.5124L15.9144 33.5168ZM40.38 28.7286C40.4395 28.4713 40.5865 28.235 40.8026 28.0495C41.0186 27.8639 41.2939 27.7376 41.5938 27.6863C41.8936 27.6351 42.2044 27.6613 42.4869 27.7616C42.7694 27.8619 43.0108 28.0319 43.1806 28.2499C43.3504 28.468 43.441 28.7243 43.4409 28.9866C43.4409 29.2488 43.3501 29.5051 43.1801 29.7231C43.0102 29.9411 42.7687 30.1109 42.4861 30.2111C42.2036 30.3113 41.8928 30.3374 41.593 30.286C41.393 30.2527 41.2026 30.1858 41.0329 30.0892C40.8631 29.9925 40.7173 29.8681 40.6039 29.7229C40.4904 29.5778 40.4115 29.4148 40.3718 29.2434C40.3321 29.072 40.3322 28.8955 40.3723 28.7242L40.38 28.7286Z" fill="#F15E40"/>
</svg>
