<svg width="126" height="36" viewBox="0 0 172 49" fill="none" xmlns="http://www.w3.org/2000/svg">
<path d="M55.4893 25.6744C55.4893 20.9881 57.9977 17.8518 62.362 17.8518C66.7772 17.8518 69.2856 20.9901 69.2856 25.6744C69.2856 30.4031 66.7772 33.5394 62.362 33.5394C57.9977 33.5414 55.4893 30.4031 55.4893 25.6744ZM64.7688 25.6744C64.7688 22.8112 64.0411 20.9254 62.36 20.9254C60.7297 20.9254 60.002 22.8132 60.002 25.6744C60.002 28.5577 60.7297 30.4658 62.36 30.4658C64.0411 30.4678 64.7688 28.5598 64.7688 25.6744Z" fill="#F15E40"/>
<path d="M83.8585 27.2647C83.8585 31.6312 81.3745 33.5393 78.5408 33.5393C77.4126 33.5393 76.5853 33.2844 75.9572 32.7967C75.8575 32.734 75.7823 32.7542 75.7823 32.8594V36.6554C75.7823 37.0378 75.5323 37.2482 75.079 37.2482H72.2189C71.7676 37.2482 71.5156 37.0358 71.5156 36.6554V21.9411C71.5156 21.5586 71.7656 21.3482 72.2189 21.3482H73.8248C74.2252 21.3482 74.4773 21.5182 74.6277 21.8136L75.079 22.7261C75.1298 22.8111 75.2294 22.8314 75.2802 22.7261C75.9571 21.5182 76.9105 21.0305 78.5408 21.0305C81.1996 21.0325 83.8585 22.9406 83.8585 27.2647ZM79.4677 27.2647C79.4677 25.0814 78.9412 23.9786 77.9127 23.9786C77.1341 23.9786 76.382 24.3388 75.8047 25.5468C75.7803 25.6095 75.7803 25.6743 75.7803 25.7168V28.9401C75.7803 28.9826 75.8047 29.0676 75.8311 29.1728C76.3576 30.3808 77.0609 30.5507 77.9127 30.5507C78.9169 30.5527 79.4677 29.5552 79.4677 27.2647Z" fill="#F15E40"/>
<path d="M94.8192 29.8304C95.0956 29.5127 95.4209 29.4277 95.7969 29.6604L98.0289 30.9534C98.405 31.1861 98.4802 31.5038 98.1285 31.8012C96.5978 33.1367 94.5915 33.5393 92.4347 33.5393C88.17 33.5393 85.4868 31.3763 85.4868 27.2647C85.4868 23.6387 88.17 21.0305 92.2335 21.0305C96.171 21.0305 98.6794 23.3838 98.6794 26.2246C98.6794 26.7325 98.655 27.3052 98.529 27.8778C98.4537 28.238 98.2037 28.4079 97.7768 28.4079H90.1011C90.0015 28.4079 89.9507 28.4706 89.9751 28.5779C90.2515 30.1258 91.0545 30.8684 92.5079 30.8684C93.4409 30.8704 94.2175 30.573 94.8192 29.8304ZM89.9548 25.994C89.9304 26.079 89.9792 26.1215 90.0808 26.1215H94.3699C94.4695 26.1215 94.5204 26.079 94.5204 25.994C94.3699 24.616 93.5162 23.6832 92.2376 23.6832C90.6561 23.6832 90.1052 24.6363 89.9548 25.994Z" fill="#F15E40"/>
<path d="M112.931 25.2514V32.6288C112.931 33.0112 112.681 33.2216 112.228 33.2216H109.368C108.916 33.2216 108.664 33.0092 108.664 32.6288V25.8017C108.664 24.5938 108.264 24.0414 107.687 24.0414C106.908 24.0414 106.032 24.8467 105.554 26.1619C105.53 26.2246 105.53 26.2894 105.53 26.3319V32.6288C105.53 33.0112 105.28 33.2216 104.826 33.2216H101.966C101.515 33.2216 101.263 33.0092 101.263 32.6288V21.9431C101.263 21.5607 101.513 21.3502 101.966 21.3502H103.696C104.097 21.3502 104.373 21.4979 104.524 21.8156L105.026 22.9184C105.076 23.0236 105.176 23.0034 105.251 22.8961C105.955 21.7084 107.107 21.0305 108.512 21.0305C111.1 21.0325 112.931 22.1555 112.931 25.2514Z" fill="#F15E40"/>
<path d="M124.418 25.3568C126.601 25.7595 128.081 27.1597 128.081 29.1952C128.081 31.8884 125.874 33.2239 121.684 33.2239H116.316C115.864 33.2239 115.612 33.0114 115.612 32.631V18.7645C115.612 18.3821 115.862 18.1716 116.316 18.1716H121.709C125.396 18.1716 127.453 19.6548 127.453 22.2428C127.453 23.9384 126.5 24.8934 124.418 25.2738C124.294 25.2941 124.294 25.3366 124.418 25.3568ZM120.156 20.8628C120.056 20.8628 120.005 20.9053 120.005 20.9903V24.2338C120.005 24.3188 120.056 24.3613 120.156 24.3613H121.235C122.514 24.3613 122.965 23.6612 122.965 22.4957C122.965 21.3302 122.339 20.8628 121.009 20.8628H120.156ZM120.156 30.5307H121.208C122.839 30.5307 123.591 30.0855 123.591 28.9403C123.591 27.5401 122.863 26.9472 121.233 26.9472H120.153C120.054 26.9472 120.003 26.9897 120.003 27.0747V30.4032C120.005 30.4882 120.054 30.5307 120.156 30.5307Z" fill="#F15E40"/>
<path d="M138.867 29.8304C139.144 29.5127 139.469 29.4277 139.845 29.6604L142.077 30.9534C142.453 31.1861 142.528 31.5038 142.176 31.8012C140.646 33.1367 138.639 33.5393 136.483 33.5393C132.218 33.5393 129.535 31.3763 129.535 27.2647C129.535 23.6387 132.218 21.0305 136.281 21.0305C140.219 21.0305 142.727 23.3838 142.727 26.2246C142.727 26.7325 142.703 27.3052 142.577 27.8778C142.502 28.238 142.252 28.4079 141.825 28.4079H134.149C134.049 28.4079 133.999 28.4706 134.023 28.5779C134.299 30.1258 135.102 30.8684 136.556 30.8684C137.489 30.8704 138.265 30.573 138.867 29.8304ZM134.001 25.994C133.976 26.079 134.025 26.1215 134.127 26.1215H138.416C138.515 26.1215 138.566 26.079 138.566 25.994C138.416 24.616 137.562 23.6832 136.283 23.6832C134.704 23.6832 134.151 24.6363 134.001 25.994Z" fill="#F15E40"/>
<path d="M154.895 30.1704L155.849 31.9085C156.024 32.2484 155.924 32.5236 155.524 32.6936C154.143 33.3289 152.991 33.5414 151.36 33.5414C148.049 33.5414 146.193 32.1837 146.193 29.0676V24.3389C146.193 24.2539 146.142 24.2114 146.043 24.2114H144.262C143.811 24.2114 143.559 23.9989 143.559 23.6185V21.9431C143.559 21.5607 143.809 21.3503 144.262 21.3503H146.043C146.118 21.3503 146.193 21.3078 146.193 21.2228V19.082C146.193 18.6996 146.443 18.4891 146.897 18.4891H149.757C150.208 18.4891 150.46 18.7016 150.46 19.082V21.2228C150.46 21.2855 150.511 21.3503 150.61 21.3503H154.649C155.101 21.3503 155.353 21.5627 155.353 21.9431V23.6185C155.353 24.0009 155.103 24.2114 154.649 24.2114H150.61C150.511 24.2114 150.46 24.2539 150.46 24.3389V28.5799C150.46 29.7879 150.911 30.573 151.889 30.573C152.566 30.573 153.243 30.3606 153.946 29.9579C154.345 29.7252 154.696 29.7879 154.895 30.1704Z" fill="#F15E40"/>
<path d="M171.477 31.0181L171.952 32.3536C172.078 32.6935 171.952 32.9687 171.601 33.1387C170.924 33.4139 170.247 33.5413 169.243 33.5413C168.013 33.5413 166.96 33.0112 166.307 32.2686C166.232 32.2059 166.157 32.2059 166.082 32.2464C164.978 33.0942 163.823 33.5393 162.545 33.5393C159.76 33.5393 157.829 32.1816 157.829 30.1258C157.829 27.1372 161.868 26.4573 165.429 26.0122C165.529 25.992 165.58 25.9272 165.58 25.8645V25.1866C165.58 24.3591 165.002 23.8714 164.175 23.8714C163.272 23.8714 162.47 24.2538 161.766 25.1644C161.516 25.5043 161.215 25.6095 160.813 25.3768L158.63 24.1264C158.278 23.9139 158.154 23.6387 158.404 23.321C159.658 21.7731 161.766 21.0305 164.173 21.0305C167.911 21.0305 169.842 22.5987 169.842 25.3768V29.9133C169.842 30.4435 169.968 30.8037 170.194 30.8037C170.369 30.8037 170.57 30.7612 170.745 30.6762C171.101 30.5305 171.351 30.6357 171.477 31.0181ZM165.506 29.9376C165.557 29.8951 165.582 29.8526 165.582 29.7899V28.1995C165.582 28.1145 165.531 28.0518 165.407 28.072C163.726 28.3472 162.197 28.8349 162.197 30.0024C162.197 30.5527 162.522 31.0404 163.126 31.0404C163.876 31.0384 164.805 30.5527 165.506 29.9376Z" fill="#F15E40"/>
<path d="M47.6631 10.1932C47.6529 10.1568 46.2463 5.96223 46.0369 5.35318C45.3092 3.22859 43.1748 2.4779 42.6483 2.20069C41.9856 1.85266 41.3778 1.6402 40.2273 1.3468C38.7332 0.9664 36.6191 0.521247 33.9582 0.256179C33.9582 0.256179 28.1892 -0.379176 20.6152 0.351279C19.9667 0.414005 18.9219 0.575879 17.814 1.23956C15.5353 2.60537 14.7567 5.11239 14.466 6.05126C13.7546 8.34177 13.9822 10.8711 14.6754 13.8516C14.9275 14.9381 14.0961 15.9782 12.974 15.9782C12.3459 15.9782 11.7645 15.6423 11.4555 15.096C10.8193 13.975 9.58538 13.2304 8.18684 13.2931C6.39394 13.374 4.92018 14.8026 4.79415 16.5832C4.64779 18.6531 6.30043 20.3852 8.34945 20.3852C9.67075 20.3852 10.8254 19.6649 11.4413 18.6005C11.7564 18.0542 12.3316 17.7102 12.9638 17.7102H13.3338C14.7425 17.7102 15.9865 18.6309 16.3911 19.9744C16.6879 20.9598 16.9989 21.9877 17.3119 23.0642C17.3851 23.3151 17.5132 23.7542 17.688 24.3491C17.936 25.1827 17.3078 26.0184 16.4358 26.0184C15.9398 26.0184 15.4885 25.7371 15.2669 25.296C14.6815 24.1346 13.472 23.3353 12.0796 23.3353C10.6526 23.3353 9.41869 24.1751 8.84951 25.383C8.66453 25.7756 8.25798 26.0164 7.82297 26.0164C7.37576 26.0164 6.97531 25.7554 6.78219 25.3547C6.18659 24.1144 4.88563 23.2706 3.39968 23.3374C1.60881 23.4183 0.135058 24.8468 0.00902711 26.6274C-0.137332 28.6974 1.51531 30.4295 3.56433 30.4295C4.99133 30.4295 6.22522 29.5897 6.79439 28.3818C6.97937 27.9892 7.38593 27.7484 7.82094 27.7484C8.25595 27.7484 8.6625 27.9892 8.84748 28.3818C9.41666 29.5918 10.6505 30.4295 12.0775 30.4295C13.47 30.4295 14.6775 29.6302 15.2649 28.4688C15.4885 28.0277 15.9378 27.7464 16.4338 27.7464H17.2204C18.1149 27.7464 18.9036 28.3211 19.176 29.1689C19.7167 30.8544 20.355 32.7807 21.0746 34.8223C21.2616 35.3545 20.8652 35.9109 20.298 35.9109C19.9647 35.9109 19.6659 35.7106 19.5378 35.4051C18.9788 34.0777 17.6331 33.157 16.0862 33.2258C14.2933 33.3068 12.8195 34.7353 12.6935 36.5159C12.5471 38.5859 14.1997 40.3179 16.2488 40.3179C17.7307 40.3179 19.0032 39.4135 19.5398 38.1306C19.6659 37.8311 19.9667 37.643 20.2919 37.643H20.666C21.5197 37.643 22.2841 38.1691 22.5849 38.9643C23.1114 40.3543 23.6663 41.7586 24.2436 43.1467C24.7782 44.4336 25.8292 46.8516 28.2075 47.8916C30.3521 48.8284 32.5942 48.2417 33.761 47.8289C36.8549 46.3983 38.6051 44.8544 41.8596 42.7218C42.5568 42.2645 43.6281 41.5846 44.7745 40.3341C45.2929 39.7676 46.4516 38.4705 46.7585 36.4168C46.9333 35.2472 46.7707 34.2456 46.5776 33.5516L46.6244 33.5192C47.2606 33.0963 47.4334 32.2323 47.0086 31.599L37.0704 16.7855C36.6455 16.1522 35.7775 15.9802 35.1413 16.4031L30.3257 19.6062C29.6894 20.0291 29.5166 20.8931 29.9415 21.5264L39.8837 36.3419C40.1724 36.7729 40.6663 36.9894 41.1542 36.951C41.1176 37.0724 41.0709 37.1978 41.0119 37.3273C40.8168 37.7522 40.5627 38.0476 40.3817 38.2257C37.2045 40.9594 34.814 42.4182 33.4764 43.1507C32.8443 43.4967 31.8726 44.1037 31.029 43.6647C29.7748 43.0111 28.3925 39.3426 28.2075 38.7093C26.7134 33.6143 26.685 33.4545 20.6639 11.2737C20.5013 10.6768 19.8508 8.60684 20.6172 7.23699C20.6172 7.23699 20.8489 6.82219 21.2148 6.46404C22.7374 4.97885 35.4401 5.42805 37.8489 6.02698C39.158 6.35275 40.5179 6.81814 41.2945 8.00791C41.7152 8.65136 41.9144 9.42633 42.0771 10.0475C42.3434 11.0795 42.4125 11.9698 42.4226 12.5991C42.4958 13.4145 42.4999 13.7848 42.7906 13.9891C42.9877 14.1267 43.2174 14.1247 43.8354 14.0033C44.6262 13.8495 45.5917 13.5865 47.1956 12.8095C47.6042 12.6112 47.7241 12.5384 47.8298 12.3866C48.1245 11.9657 47.9822 11.4194 47.6631 10.1932ZM8.35149 18.6531C7.34527 18.6531 6.52607 17.8377 6.52607 16.8361C6.52607 15.8345 7.34527 15.0191 8.35149 15.0191C9.35771 15.0191 10.1769 15.8345 10.1769 16.8361C10.1769 17.8377 9.35771 18.6531 8.35149 18.6531ZM3.5684 28.6994C2.56218 28.6994 1.74297 27.884 1.74297 26.8824C1.74297 25.8808 2.56218 25.0654 3.5684 25.0654C4.57461 25.0654 5.39382 25.8808 5.39382 26.8824C5.39382 27.884 4.57665 28.6994 3.5684 28.6994ZM12.0836 28.6994C11.0774 28.6994 10.2582 27.884 10.2582 26.8824C10.2582 25.8808 11.0774 25.0654 12.0836 25.0654C13.0899 25.0654 13.9091 25.8808 13.9091 26.8824C13.9091 27.884 13.0899 28.6994 12.0836 28.6994ZM16.2528 38.5899C15.2466 38.5899 14.4274 37.7745 14.4274 36.7729C14.4274 35.7713 15.2466 34.9559 16.2528 34.9559C17.2591 34.9559 18.0783 35.7713 18.0783 36.7729C18.0783 37.7745 17.2591 38.5899 16.2528 38.5899ZM41.2274 32.9162C41.3981 32.0664 42.2275 31.514 43.0813 31.684C43.935 31.854 44.49 32.6795 44.3192 33.5293C44.1485 34.3792 43.3191 34.9316 42.4653 34.7616C41.6116 34.5937 41.0566 33.7661 41.2274 32.9162Z" fill="#F15E40"/>
</svg>
