<svg xmlns="http://www.w3.org/2000/svg" version="1.1" xmlns:xlink="http://www.w3.org/1999/xlink" xmlns:svgjs="http://svgjs.com/svgjs" preserveAspectRatio="none">
    <g mask="url(&quot;#SvgjsMask1106&quot;)" fill="none">
        <path d="M1225 252C1179.7 252 1108.33 308.69 1108.33 350C1108.33 384.91 1174.34 404.44 1225 404.44C1250.69 404.44 1261.03 379.32 1261.03 350C1261.03 303.1 1256.05 252 1225 252" stroke="rgba(127, 127, 127, 0.51)" stroke-width="2"></path>
        <path d="M1944.44 700C1944.44 675.49 2048.36 608.7 2100 608.7C2126.14 608.7 2128.77 683.12 2100 700C2050.99 728.77 1944.44 721.14 1944.44 700" stroke="rgba(127, 127, 127, 0.51)" stroke-width="2"></path>
        <path d="M0 84.55C36.91 30.47 56.02 30.64 119.44 0C143.52 -11.63 147.22 0 175 0C262.5 0 262.5 0 350 0C353.24 0 356.48 -1.34 356.48 0C356.48 1.9 351.85 2.31 350 6.48C313.07 89.81 329 101.38 278.91 175C241.5 229.98 228.57 221.37 175 263.67C117.75 308.87 90.81 291.07 57.27 350C16.44 421.74 -4.23 460.91 26.25 525C54.63 584.69 112.29 547.67 175 597.56C222.26 635.17 246.19 667.39 246.19 700C246.19 718.61 210.6 700 175 700C87.5 700 43.75 743.75 0 700C-43.75 656.25 0 612.5 0 525C0 437.5 0 437.5 0 350C0 262.5 0 262.5 0 175C0 129.77 -22.81 117.97 0 84.55" stroke="rgba(127, 127, 127, 0.51)" stroke-width="2"></path>
        <path d="M448.91 175C448.91 140.72 478.17 104.56 525 98.91C603.72 89.41 628.84 169.35 700 144.71C771.67 119.9 746 53.47 810.66 0C833.5 -18.88 842.83 0 875 0C922.56 0 935.15 -23.68 970.11 0C1022.65 35.59 1003.56 65.36 1050 118.55C1079.96 152.86 1122.92 145.87 1122.92 175C1122.92 205.34 1093.91 227.45 1050 237.5C969.95 255.83 953.35 205.38 875 231.76C786.3 261.63 791.37 287.23 715.91 350C703.87 360.02 708.01 377.34 700 377.34C691.95 377.34 695.71 360.32 683.8 350C608.21 284.51 605.8 285.92 525 225.72C488.36 198.42 448.91 204.13 448.91 175" stroke="rgba(127, 127, 127, 0.51)" stroke-width="2"></path>
        <path d="M1269.55 175C1287.53 106.23 1333.49 64.62 1400 64.62C1470.46 64.62 1474.84 116.62 1543.5 175C1562.34 191.02 1561.05 192.9 1575 213.41C1620.55 280.4 1611.68 287.75 1662.5 350C1699.18 394.93 1706.9 388.18 1750 427.78C1802.12 475.68 1852.94 474.67 1852.94 525C1852.94 578.84 1803.92 636.11 1750 636.11C1691.04 636.11 1686.18 582.91 1627.19 525C1598.68 497 1607.33 464.29 1575 464.29C1519.26 464.29 1513.22 495.06 1451.04 525C1425.72 537.19 1427.48 545.78 1400 548.56C1314.46 557.2 1308.58 557.76 1225 547.83C1209.41 545.98 1201.67 536.48 1201.67 525C1201.67 513.4 1215.5 515.11 1225 501.67C1277.35 427.61 1314.29 431.26 1325.37 350C1336.56 267.93 1250.22 248.92 1269.55 175" stroke="rgba(127, 127, 127, 0.51)" stroke-width="2"></path>
        <path d="M1750 81.91C1689.12 58.18 1643.06 22.83 1643.06 0C1643.06 -18.12 1696.53 0 1750 0C1837.5 0 1837.5 0 1925 0C1984.07 0 2043.13 -23.22 2043.13 0C2043.13 31.72 1994.84 90.36 1925 109.88C1848.28 131.32 1830.09 113.12 1750 81.91" stroke="rgba(127, 127, 127, 0.51)" stroke-width="2"></path>
        <path d="M458.71 525C458.71 495.21 490.14 465.88 525 465.88C565.35 465.88 609.13 495.17 609.13 525C609.13 555.11 565.29 585.76 525 585.76C490.08 585.76 458.71 555.15 458.71 525" stroke="rgba(127, 127, 127, 0.51)" stroke-width="2"></path>
        <path d="M669.3 700C669.3 684.69 684.46 652.7 700 652.7C715.72 652.7 731.82 684.82 731.82 700C731.82 708.47 715.91 700 700 700C684.65 700 669.3 708.34 669.3 700" stroke="rgba(127, 127, 127, 0.51)" stroke-width="2"></path>
        <path d="M1000 700C1000 683.46 1024.43 644.74 1050 644.74C1076.58 644.74 1104.31 683.76 1104.31 700C1104.31 711.39 1077.15 700 1050 700C1025 700 1000 711.09 1000 700" stroke="rgba(127, 127, 127, 0.51)" stroke-width="2"></path>
        <path d="M0 133.71C72.18 81.58 112.14 36.28 175 48.61C217.41 56.93 210.55 117.21 210.55 175C210.55 195.57 194.78 193 175 205.33C89.5 258.63 53.04 315.44 0 306.25C-34.46 300.28 0 240.63 0 175C0 154.36 -15.32 144.77 0 133.71" stroke="rgba(127, 127, 127, 0.51)" stroke-width="2"></path>
        <path d="M1349.09 175C1350.48 145.48 1374.04 131.92 1400 131.92C1427.5 131.92 1432.07 149.26 1456 175C1519.57 243.36 1516.91 246.53 1575 320.12C1585.98 334.03 1594.14 335.46 1594.14 350C1594.14 362.9 1589.79 372.58 1575 375C1492.72 388.49 1477.79 392.32 1400 381.82C1385.15 379.82 1393.7 366.23 1389.71 350C1368.25 262.82 1345.34 254.52 1349.09 175" stroke="rgba(127, 127, 127, 0.51)" stroke-width="2"></path>
        <path d="M1925 8.14C1891.33 8.14 1855 2.04 1855 0C1855 -2.03 1890 0 1925 0C1929.38 0 1933.75 -1.72 1933.75 0C1933.75 2.35 1930.71 8.14 1925 8.14" stroke="rgba(127, 127, 127, 0.51)" stroke-width="2"></path>
        <path d="M1703.95 525C1703.95 506.01 1727.77 488.54 1750 488.54C1770.1 488.54 1788.6 506.13 1788.6 525C1788.6 545.19 1770.22 566.67 1750 566.67C1727.89 566.67 1703.95 545.08 1703.95 525" stroke="rgba(127, 127, 127, 0.51)" stroke-width="2"></path>
        <path d="M0 618.9C57.79 618.9 166.25 678.64 166.25 700C166.25 719.19 55.87 727.25 0 700C-27.25 686.7 -25.34 618.9 0 618.9" stroke="rgba(127, 127, 127, 0.51)" stroke-width="2"></path>
    </g>
    <defs>
        <mask id="SvgjsMask1106">
            <rect width="2000" height="700" fill="#ffffff"></rect>
        </mask>
    </defs>
</svg>